# xmcd CD database file
#
# Track frame offsets:
#	150
#	14017
#	34106
#	47522
#	64700
#	90752
#	101800
#	113104
#	139594
#	151422
#	169045
#	191174
#
# Disc length: 2807 seconds
#
# Revision: 0
# Processed by: cddbd v1.5.2PL0 Copyright (c) Steve Scherf et al.
# Submitted via: CDex 1.51
#
DISCID=960af50c
DTITLE=Riccardo Moretti - Genetic Modification of Sound
DYEAR=2005
DGENRE=New Age
TTITLE0=Riccardo Moretti - Kalimbotronica
TTITLE1=Riccardo Moretti - Consequences
TTITLE2=Riccardo Moretti - Aboriginal Sun
TTITLE3=Riccardo Moretti - Deep Tribal
TTITLE4=Riccardo Moretti - Dreams
TTITLE5=Riccardo Moretti - The Future Lover
TTITLE6=Riccardo Moretti - A Journey Inside
TTITLE7=Riccardo Moretti - Digital Storm
TTITLE8=Riccardo Moretti - Desert Spoke
TTITLE9=Riccardo Moretti - Sonic Tube
TTITLE10=Riccardo Moretti - Return To Armenia
TTITLE11=Riccardo Moretti - Fire Drone
EXTD=YEAR: 2005
EXTT0=
EXTT1=
EXTT2=
EXTT3=
EXTT4=
EXTT5=
EXTT6=
EXTT7=
EXTT8=
EXTT9=
EXTT10=
EXTT11=
PLAYORDER=
